# xmcd
#
# Track frame offsets:
#	150
#	37844
#	76163
#	107534
#	134099
#	159901
#	211163
#	253436
#
# Disc length: 3462 seconds
#
# Revision: 4
# Processed by: cddbd v1.5.2PL0 Copyright (c) Steve Scherf et al.
# Submitted via: audiograbber 1.83.01
#
DISCID=620d8408
DTITLE=Arthur McQueen - Stretching und Gymnastik
DYEAR=2016
DGENRE=New Age
TTITLE0=World Of Pilate
TTITLE1=Workout On The Beach
TTITLE2=Move Your Body
TTITLE3=Evolution
TTITLE4=Little Paradise
TTITLE5=Fantastic Wellness Weekend
TTITLE6=The Long Way To The Top
TTITLE7=Evolution Reprise
EXTD=
EXTT0=
EXTT1=
EXTT2=
EXTT3=
EXTT4=
EXTT5=
EXTT6=
EXTT7=
PLAYORDER=
